<?xml version="1.0" standalone="no"?><!DOCTYPE svg PUBLIC "-//W3C//DTD SVG 1.1//EN" "http://www.w3.org/Graphics/SVG/1.1/DTD/svg11.dtd"><svg t="1745718820907" class="icon" viewBox="0 0 1024 1024" version="1.1" xmlns="http://www.w3.org/2000/svg" p-id="2249" xmlns:xlink="http://www.w3.org/1999/xlink" width="200" height="200"><path d="M510.3616 500.1216m-393.5232 0a393.5232 393.5232 0 1 0 787.0464 0 393.5232 393.5232 0 1 0-787.0464 0Z" fill="#B7B7AE" p-id="2250"></path><path d="M491.8272 441.9584m-311.04 0a311.04 311.04 0 1 0 622.08 0 311.04 311.04 0 1 0-622.08 0Z" fill="#CECECE" p-id="2251"></path><path d="M446.5664 380.928m-183.2448 0a183.2448 183.2448 0 1 0 366.4896 0 183.2448 183.2448 0 1 0-366.4896 0Z" fill="#EAEAEA" p-id="2252"></path><path d="M512 919.7568c-10.9056 0-21.8112-0.4096-32.8192-1.28A419.1744 419.1744 0 0 1 387.9936 99.9936a25.6 25.6 0 1 1 15.0528 48.896 367.9744 367.9744 0 1 0 457.728 467.456 25.6 25.6 0 0 1 48.5888 16.0768A418.048 418.048 0 0 1 512 919.7568z" fill="#434A54" p-id="2253"></path><path d="M587.5712 114.2272v325.7344h311.7568a393.8304 393.8304 0 0 0-311.7568-325.7344z" fill="#5AB3FF" p-id="2254"></path><path d="M602.4704 158.1056L586.4448 440.32l212.0192 1.7408a301.5168 301.5168 0 0 0-195.9936-283.9552z" fill="#7BD3FF" p-id="2255"></path><path d="M899.328 465.5616h-311.7568a25.6 25.6 0 0 1-25.6-25.6V114.2272a25.6 25.6 0 0 1 30.72-25.088 419.84 419.84 0 0 1 332.032 346.9312 25.6 25.6 0 0 1-25.2928 29.4912z m-286.1568-51.2h255.0784a368.64 368.64 0 0 0-255.0784-267.5712z" fill="#434A54" p-id="2256"></path></svg>