<svg width="28" height="28" viewBox="0 0 28 28" fill="none" xmlns="http://www.w3.org/2000/svg">
<path d="M23.8238 14.0938H22.722C22.2309 12.6512 21.2965 11.4007 20.0522 10.521V8.14101C20.0516 8.05794 20.0307 7.97628 19.9913 7.90313C19.9519 7.82999 19.8953 7.76758 19.8263 7.72134C19.7573 7.6751 19.678 7.64644 19.5954 7.63784C19.5127 7.62924 19.4293 7.64097 19.3522 7.67201L17.9662 8.26001C17.9816 8.43361 17.99 8.60861 17.99 8.78641C17.9926 10.0238 17.5954 11.2288 16.8574 12.222H7.56C7.13451 11.6477 6.81974 10.9992 6.6318 10.3096C5.59673 10.9577 4.7434 11.8583 4.15198 12.9268C3.56055 13.9953 3.25045 15.1966 3.2508 16.4178C3.25039 17.6631 3.57257 18.8872 4.18595 19.9709C4.79933 21.0546 5.68298 21.961 6.7508 22.6016V23.8812C6.7508 24.0906 6.83399 24.2915 6.98207 24.4395C7.13015 24.5876 7.33099 24.6708 7.5404 24.6708H9.7468C9.95621 24.6708 10.1571 24.5876 10.3051 24.4395C10.4532 24.2915 10.5364 24.0906 10.5364 23.8812V23.6292H15.8928C16.1028 23.6292 16.3128 23.618 16.5144 23.6012V23.8812C16.5148 24.0908 16.5983 24.2916 16.7466 24.4396C16.8949 24.5877 17.0959 24.6708 17.3054 24.6708H19.2654C19.4749 24.6708 19.6759 24.5877 19.8242 24.4396C19.9725 24.2916 20.056 24.0908 20.0564 23.8812V22.3006C21.3291 21.4008 22.2769 20.1137 22.7584 18.6312H23.828C23.9658 18.6314 24.1023 18.6044 24.2297 18.5518C24.3571 18.4992 24.4729 18.422 24.5704 18.3246C24.6679 18.2272 24.7453 18.1115 24.798 17.9842C24.8508 17.8569 24.878 17.7204 24.878 17.5826V15.1424C24.878 15.0042 24.8507 14.8674 24.7976 14.7398C24.7446 14.6122 24.6669 14.4964 24.5689 14.399C24.4709 14.3015 24.3547 14.2244 24.2268 14.172C24.0989 14.1197 23.962 14.0931 23.8238 14.0938Z" fill="#FFD16C"/>
<path d="M23.8238 14.0938H22.722C22.2309 12.6512 21.2965 11.4007 20.0522 10.521V8.14101C20.0516 8.05794 20.0307 7.97628 19.9913 7.90313C19.9519 7.82999 19.8953 7.76758 19.8263 7.72134C19.7573 7.6751 19.678 7.64644 19.5954 7.63784C19.5127 7.62924 19.4293 7.64097 19.3522 7.67201L17.9662 8.26001C17.9816 8.43361 17.99 8.60861 17.99 8.78641C17.9901 9.07746 17.9681 9.36809 17.9242 9.65581L18.6746 9.39541C18.6943 9.38846 18.7153 9.38633 18.736 9.38922C18.7567 9.3921 18.7763 9.39991 18.7934 9.41199C18.8104 9.42406 18.8242 9.44005 18.8338 9.45861C18.8433 9.47717 18.8483 9.49775 18.8482 9.51861V11.2826C18.848 11.3981 18.8764 11.5119 18.9309 11.6138C18.9854 11.7156 19.0642 11.8024 19.1604 11.8664C19.9052 12.355 21.5824 13.951 21.5824 16.639C21.5824 19.383 19.0624 21.0756 18.2784 21.6608C18.1873 21.7279 18.1133 21.8154 18.0622 21.9163C18.0112 22.0172 17.9845 22.1287 17.9844 22.2418V23.4206C17.9844 23.8098 18.0824 24.374 17.6764 24.6708H19.2612C19.4707 24.6708 19.6717 24.5877 19.82 24.4396C19.9683 24.2916 20.0518 24.0908 20.0522 23.8812V22.3006C21.3249 21.4008 22.2727 20.1137 22.7542 18.6312H23.8238C23.9616 18.6314 24.0981 18.6044 24.2255 18.5518C24.3529 18.4992 24.4687 18.422 24.5662 18.3246C24.6637 18.2272 24.7411 18.1115 24.7938 17.9842C24.8466 17.8569 24.8738 17.7204 24.8738 17.5826V15.1424C24.8738 15.0046 24.8466 14.8681 24.7938 14.7408C24.7411 14.6135 24.6637 14.4978 24.5662 14.4004C24.4687 14.3031 24.3529 14.2258 24.2255 14.1732C24.0981 14.1206 23.9616 14.0936 23.8238 14.0938Z" fill="#FFB600"/>
<path d="M16.8574 12.215C17.4937 11.3545 17.8786 10.3343 17.9692 9.26793C18.0599 8.20159 17.8527 7.13102 17.3709 6.17546C16.889 5.2199 16.1514 4.41686 15.2401 3.85578C14.3288 3.2947 13.2796 2.99762 12.2094 2.99762C11.1392 2.99762 10.09 3.2947 9.17874 3.85578C8.26743 4.41686 7.52977 5.2199 7.04791 6.17546C6.56605 7.13102 6.35892 8.20159 6.44958 9.26793C6.54024 10.3343 6.92514 11.3545 7.5614 12.215H16.8574Z" fill="#FFFCE3"/>
<path d="M23.8238 13.6738H23.016C22.497 12.339 21.6161 11.1754 20.4722 10.3138V8.13819C20.4726 7.98449 20.4348 7.83311 20.3623 7.69758C20.2899 7.56205 20.1849 7.4466 20.0569 7.36157C19.9289 7.27655 19.7818 7.22459 19.6287 7.21035C19.4757 7.19611 19.3215 7.22004 19.18 7.27998L18.305 7.64959C18.1684 6.82792 17.8677 6.04219 17.4207 5.33931C16.9738 4.63642 16.3898 4.03079 15.7037 3.55856C15.0176 3.08633 14.2433 2.75719 13.4272 2.59077C12.611 2.42436 11.7697 2.42409 10.9534 2.58997C10.1372 2.75586 9.36272 3.0845 8.67627 3.55629C7.98982 4.02807 7.40546 4.63332 6.95807 5.33592C6.51069 6.03851 6.20944 6.82404 6.07233 7.64562C5.93521 8.4672 5.96503 9.30798 6.16 10.1178C5.12107 10.8282 4.27411 11.7848 3.69464 12.9021C3.11516 14.0193 2.82119 15.2627 2.83893 16.5212C2.85668 17.7797 3.18558 19.0142 3.79632 20.1147C4.40707 21.2152 5.28066 22.1475 6.3392 22.8284V23.8742C6.33957 24.1949 6.46713 24.5023 6.69389 24.7291C6.92066 24.9559 7.22811 25.0834 7.5488 25.0838H9.7468C10.0384 25.0833 10.3201 24.9778 10.5402 24.7865C10.7603 24.5951 10.9041 24.3309 10.9452 24.0422H16.1056C16.1461 24.3317 16.2898 24.5967 16.5103 24.7887C16.7307 24.9806 17.0131 25.0864 17.3054 25.0866H19.2654C19.5862 25.0862 19.8938 24.9587 20.1208 24.732C20.3478 24.5053 20.4757 24.1978 20.4764 23.877V22.5162C21.6496 21.632 22.5454 20.4307 23.058 19.054H23.828C24.2176 19.054 24.5913 18.8993 24.867 18.6239C25.1426 18.3486 25.2976 17.975 25.298 17.5854V15.1424C25.2976 14.9492 25.2592 14.7579 25.1849 14.5795C25.1106 14.4011 25.0019 14.2391 24.8651 14.1028C24.7282 13.9664 24.5658 13.8583 24.3871 13.7847C24.2084 13.7111 24.017 13.6734 23.8238 13.6738ZM12.2038 3.41739C13.5407 3.41903 14.8288 3.9195 15.8162 4.82086C16.8035 5.72222 17.4189 6.95958 17.542 8.29078C17.5485 8.37478 17.5541 8.45599 17.5588 8.53439C17.5588 8.61559 17.5658 8.69679 17.5658 8.77939C17.5688 9.85557 17.2446 10.9072 16.6362 11.795H7.7784C7.7098 11.6956 7.6468 11.5934 7.5852 11.4898C7.574 11.4716 7.5628 11.4534 7.553 11.4352C7.4998 11.3428 7.4508 11.249 7.4046 11.1552C7.3878 11.123 7.371 11.0894 7.3556 11.0572C7.315 10.9704 7.2786 10.8836 7.2422 10.7968C7.224 10.7506 7.2058 10.7058 7.189 10.6568C7.1624 10.5868 7.1386 10.5168 7.1148 10.4468C7.091 10.3768 7.0756 10.3194 7.0574 10.255C6.82784 9.45699 6.7869 8.61656 6.93782 7.80003C7.08873 6.9835 7.42736 6.21323 7.92699 5.55C8.42661 4.88678 9.07356 4.34876 9.81675 3.97841C10.5599 3.60806 11.379 3.41552 12.2094 3.41599L12.2038 3.41739ZM24.4482 17.5826C24.4478 17.7494 24.3813 17.9093 24.2632 18.0272C24.1451 18.145 23.985 18.2112 23.8182 18.2112H22.7486C22.6599 18.2113 22.5734 18.2396 22.5018 18.2919C22.4301 18.3442 22.3768 18.4179 22.3496 18.5024C21.8932 19.8974 21.0004 21.1087 19.803 21.9576C19.7483 21.9965 19.7038 22.048 19.6731 22.1076C19.6424 22.1673 19.6265 22.2335 19.6266 22.3006V23.8742C19.6262 23.9723 19.587 24.0663 19.5174 24.1356C19.4479 24.2049 19.3538 24.2438 19.2556 24.2438H17.2956C17.1974 24.2438 17.1033 24.2049 17.0338 24.1356C16.9642 24.0663 16.925 23.9723 16.9246 23.8742V23.5942C16.9246 23.4828 16.8803 23.376 16.8016 23.2972C16.7228 23.2184 16.616 23.1742 16.5046 23.1742H16.4696C16.2582 23.1924 16.0664 23.2008 15.883 23.2008H10.5364C10.425 23.2008 10.3182 23.245 10.2394 23.3238C10.1606 23.4026 10.1164 23.5094 10.1164 23.6208V23.8728C10.1164 23.9708 10.0775 24.0648 10.0081 24.1341C9.93883 24.2034 9.84482 24.2424 9.7468 24.2424H7.5432C7.44518 24.2424 7.35117 24.2034 7.28185 24.1341C7.21254 24.0648 7.1736 23.9708 7.1736 23.8728V22.5932C7.17349 22.5207 7.1546 22.4494 7.11879 22.3864C7.08297 22.3233 7.03143 22.2706 6.9692 22.2334C6.01322 21.6592 5.21335 20.8585 4.64021 19.9019C4.06707 18.9453 3.73831 17.8623 3.68296 16.7485C3.62761 15.6347 3.84738 14.5244 4.32285 13.5157C4.79832 12.507 5.51486 11.6309 6.4092 10.9648C6.50804 11.2269 6.62499 11.4819 6.7592 11.7278L6.7746 11.7544C6.8376 11.8692 6.9048 11.9826 6.9748 12.0946L7.0014 12.1352C7.0742 12.2472 7.1484 12.3564 7.2282 12.4642C7.2666 12.5163 7.31653 12.5588 7.37409 12.5885C7.43164 12.6181 7.49527 12.634 7.56 12.635H16.856C16.9225 12.6348 16.988 12.6189 17.0472 12.5885C17.1063 12.558 17.1574 12.514 17.1962 12.46C17.9879 11.3943 18.4141 10.1014 18.4114 8.77378V8.51759L19.516 8.05139C19.5292 8.04544 19.5438 8.04297 19.5582 8.04419C19.5727 8.04542 19.5866 8.0503 19.5986 8.05839C19.6111 8.06626 19.6214 8.07722 19.6285 8.09021C19.6357 8.10319 19.6393 8.11778 19.6392 8.13259V10.5126C19.6391 10.5797 19.655 10.6459 19.6857 10.7055C19.7164 10.7652 19.7609 10.8167 19.8156 10.8556C20.9868 11.684 21.8683 12.8593 22.3356 14.2156C22.3646 14.2977 22.4185 14.3688 22.4898 14.419C22.561 14.4692 22.6461 14.4959 22.7332 14.4956H23.835C24.0018 14.4956 24.1619 14.5618 24.28 14.6796C24.3981 14.7975 24.4646 14.9573 24.465 15.1242L24.4482 17.5826Z" fill="#333333"/>
<path d="M17.0086 13.6332C16.4828 13.6336 15.9787 13.8425 15.6067 14.2142C15.2348 14.5858 15.0255 15.0898 15.0248 15.6156C15.0248 15.727 15.0691 15.8338 15.1478 15.9126C15.2266 15.9914 15.3334 16.0356 15.4448 16.0356C15.5562 16.0356 15.663 15.9914 15.7418 15.9126C15.8206 15.8338 15.8648 15.727 15.8648 15.6156C15.8752 15.3194 16.0001 15.0387 16.2134 14.8328C16.4266 14.6269 16.7115 14.5118 17.0079 14.5118C17.3043 14.5118 17.5892 14.6269 17.8024 14.8328C18.0157 15.0387 18.1406 15.3194 18.151 15.6156C18.151 15.727 18.1953 15.8338 18.274 15.9126C18.3528 15.9914 18.4596 16.0356 18.571 16.0356C18.6824 16.0356 18.7892 15.9914 18.868 15.9126C18.9468 15.8338 18.991 15.727 18.991 15.6156C18.9906 15.09 18.7817 14.5859 18.41 14.2142C18.0383 13.8426 17.5343 13.6336 17.0086 13.6332ZM9.9792 8.7192C9.86781 8.7192 9.76098 8.76345 9.68222 8.84222C9.60345 8.92098 9.5592 9.02781 9.5592 9.1392C9.5592 9.2506 9.60345 9.35742 9.68222 9.43619C9.76098 9.51495 9.86781 9.5592 9.9792 9.5592H11.7894V10.6246C11.7894 10.736 11.8337 10.8428 11.9124 10.9216C11.9912 11.0004 12.098 11.0446 12.2094 11.0446C12.3208 11.0446 12.4276 11.0004 12.5064 10.9216C12.5852 10.8428 12.6294 10.736 12.6294 10.6246V9.5592H14.4396C14.551 9.5592 14.6578 9.51495 14.7366 9.43619C14.8154 9.35742 14.8596 9.2506 14.8596 9.1392C14.8596 9.02781 14.8154 8.92098 14.7366 8.84222C14.6578 8.76345 14.551 8.7192 14.4396 8.7192H12.6294V7.7182H14.4396C14.551 7.7182 14.6578 7.67395 14.7366 7.59519C14.8154 7.51642 14.8596 7.4096 14.8596 7.2982C14.8596 7.18681 14.8154 7.07998 14.7366 7.00122C14.6578 6.92245 14.551 6.8782 14.4396 6.8782H13.0396L14.0798 5.6784C14.1528 5.59356 14.189 5.48321 14.1806 5.37163C14.1722 5.26004 14.1198 5.15637 14.035 5.0834C13.9502 5.01044 13.8398 4.97417 13.7282 4.98258C13.6166 4.99098 13.513 5.04336 13.44 5.1282L12.208 6.5478L10.9788 5.1282C10.9058 5.04392 10.8024 4.99207 10.6912 4.98406C10.58 4.97605 10.4702 5.01254 10.3859 5.0855C10.3016 5.15847 10.2498 5.26192 10.2418 5.37311C10.2337 5.4843 10.2702 5.59412 10.3432 5.6784L11.3848 6.8782H9.9848C9.87341 6.8782 9.76658 6.92245 9.68782 7.00122C9.60905 7.07998 9.5648 7.18681 9.5648 7.2982C9.5648 7.4096 9.60905 7.51642 9.68782 7.59519C9.76658 7.67395 9.87341 7.7182 9.9848 7.7182H11.7894V8.7192H9.9792Z" fill="#333333"/>
<path d="M6.8026 19.0274C6.72838 19.0265 6.65572 19.0059 6.59202 18.9678C6.52833 18.9297 6.47587 18.8754 6.44 18.8104C5.88807 17.8381 5.70187 16.7005 5.915 15.603C5.92336 15.5468 5.94303 15.4929 5.97283 15.4445C6.00264 15.3961 6.04195 15.3543 6.08838 15.3215C6.13482 15.2888 6.18742 15.2658 6.243 15.254C6.29857 15.2421 6.35597 15.2417 6.41172 15.2527C6.46747 15.2637 6.52041 15.2859 6.56733 15.318C6.61425 15.35 6.65418 15.3912 6.6847 15.4392C6.71522 15.4871 6.7357 15.5407 6.74489 15.5968C6.75409 15.6529 6.75181 15.7102 6.7382 15.7654C6.56069 16.6691 6.71635 17.6065 7.1764 18.4044C7.21173 18.4684 7.22974 18.5405 7.22867 18.6136C7.2276 18.6866 7.20748 18.7582 7.17029 18.8211C7.1331 18.884 7.08014 18.9361 7.01664 18.9723C6.95313 19.0085 6.88129 19.0275 6.8082 19.0274H6.8026ZM6.7284 14.8778C6.66319 14.878 6.59888 14.8626 6.5408 14.833C6.44211 14.7831 6.36707 14.6964 6.33195 14.5915C6.29683 14.4867 6.30446 14.3722 6.3532 14.273C6.43206 14.1115 6.52284 13.9562 6.6248 13.8082C6.69052 13.7182 6.78932 13.6579 6.89946 13.6407C7.0096 13.6235 7.12206 13.6508 7.2121 13.7165C7.30214 13.7822 7.36239 13.881 7.37958 13.9912C7.39678 14.1013 7.36952 14.2138 7.3038 14.3038C7.22966 14.4139 7.16323 14.5289 7.105 14.6482C7.06969 14.7176 7.01577 14.7759 6.94926 14.8164C6.88276 14.857 6.80629 14.8782 6.7284 14.8778Z" fill="white"/>
</svg>
