<?xml version="1.0" standalone="no"?><!DOCTYPE svg PUBLIC "-//W3C//DTD SVG 1.1//EN" "http://www.w3.org/Graphics/SVG/1.1/DTD/svg11.dtd"><svg t="1745717518523" class="icon" viewBox="0 0 1024 1024" version="1.1" xmlns="http://www.w3.org/2000/svg" p-id="1782" xmlns:xlink="http://www.w3.org/1999/xlink" width="200" height="200"><path d="M516.352 509.696m-405.9648 0a405.9648 405.9648 0 1 0 811.9296 0 405.9648 405.9648 0 1 0-811.9296 0Z" fill="#94E0DE" p-id="1783"></path><path d="M476.5696 468.4288m-336.4352 0a336.4352 336.4352 0 1 0 672.8704 0 336.4352 336.4352 0 1 0-672.8704 0Z" fill="#D5F0F1" p-id="1784"></path><path d="M441.9072 416.768m-213.5552 0a213.5552 213.5552 0 1 0 427.1104 0 213.5552 213.5552 0 1 0-427.1104 0Z" fill="#E9FFFF" p-id="1785"></path><path d="M516.352 509.696m-166.2464 0a166.2464 166.2464 0 1 0 332.4928 0 166.2464 166.2464 0 1 0-332.4928 0Z" fill="#FFCE76" p-id="1786"></path><path d="M498.0224 485.376m-112.896 0a112.896 112.896 0 1 0 225.792 0 112.896 112.896 0 1 0-225.792 0Z" fill="#FFEBCA" p-id="1787"></path><path d="M477.696 445.2352m-31.2832 0a31.2832 31.2832 0 1 0 62.5664 0 31.2832 31.2832 0 1 0-62.5664 0Z" fill="#FFFAF3" p-id="1788"></path><path d="M516.352 78.1312a431.5648 431.5648 0 1 0 345.4976 690.176 25.6 25.6 0 0 0-40.96-30.72 380.416 380.416 0 1 1 75.776-228.1984l-0.3584 15.616c-6.656 61.44-36.6592 86.5792-103.2192 86.5792-67.6864 0-81.5616-56.32-81.5616-71.3216V358.4a25.6 25.6 0 0 0-51.2 0v24.9856a191.7952 191.7952 0 1 0 21.3504 223.6416c20.7872 30.72 57.2928 55.9616 111.4112 55.9616 93.1328 0 145.0496-44.9024 154.2144-133.4784a13.1072 13.1072 0 0 0 0-1.9968l0.4096-16.9472v-0.6656a432.0768 432.0768 0 0 0-431.36-431.7696z m0 572.2112a140.6464 140.6464 0 1 1 140.5952-140.6464A140.8 140.8 0 0 1 516.352 650.24z" fill="#434A54" p-id="1789"></path></svg>