<?xml version="1.0" standalone="no"?><!DOCTYPE svg PUBLIC "-//W3C//DTD SVG 1.1//EN" "http://www.w3.org/Graphics/SVG/1.1/DTD/svg11.dtd"><svg t="1745718826818" class="icon" viewBox="0 0 1024 1024" version="1.1" xmlns="http://www.w3.org/2000/svg" p-id="2406" xmlns:xlink="http://www.w3.org/1999/xlink" width="200" height="200"><path d="M129.2288 127.9488m157.184 0l452.4544 0q157.184 0 157.184 157.184l0 450.0992q0 157.184-157.184 157.184l-452.4544 0q-157.184 0-157.184-157.184l0-450.0992q0-157.184 157.184-157.184Z" fill="#7BD3FF" p-id="2407"></path><path d="M240.64 722.176V282.3168c0-79.872 108.9024-137.6256 108.9024-137.6256s-0.512-2.9696-1.3312-8.0896a37.7344 37.7344 0 0 1-25.0368 9.728H268.1344c-77.1584 0-139.6736 65.6896-139.6736 146.6368V727.04c0 80.9984 62.5152 146.6368 139.6736 146.6368h20.1216c11.52-1.024 23.296-1.6384 35.328-1.6384-91.3408-30.6688-82.944-105.6256-82.944-149.8624z" fill="#AEECFF" p-id="2408"></path><path d="M773.5296 722.176V282.3168c0-79.872-108.9024-137.6256-108.9024-137.6256s0.512-2.9696 1.3312-8.0896a37.7344 37.7344 0 0 0 25.0368 9.728h54.8352c77.1584 0 139.6736 65.6896 139.6736 146.6368V727.04c0 80.9984-62.5152 146.6368-139.6736 146.6368h-20.1216c-11.52-1.024-23.296-1.6384-35.328-1.6384 91.3408-30.6688 83.1488-105.6256 83.1488-149.8624z" fill="#5AB3FF" p-id="2409"></path><path d="M738.8672 918.0672H286.4128a182.9888 182.9888 0 0 1-182.784-182.784V285.1328A182.9888 182.9888 0 0 1 286.4128 102.4h452.4544A182.9888 182.9888 0 0 1 921.6 285.1328v450.1504a182.9888 182.9888 0 0 1-182.7328 182.784zM286.4128 153.6a131.7376 131.7376 0 0 0-131.584 131.584v450.1504a131.7376 131.7376 0 0 0 131.584 131.584h452.4544a131.7376 131.7376 0 0 0 131.584-131.584V285.1328A131.7376 131.7376 0 0 0 738.8672 153.6z" fill="#434A54" p-id="2410"></path><path d="M361.984 720.9984a25.6 25.6 0 0 1-25.6-25.6V490.9056a25.6 25.6 0 0 1 51.2 0v204.4928a25.6 25.6 0 0 1-25.6 25.6zM669.4912 720.9984a25.6 25.6 0 0 1-25.6-25.6V490.9056a25.6 25.6 0 0 1 51.2 0v204.4928a25.6 25.6 0 0 1-25.6 25.6zM516.5056 723.3024a25.6 25.6 0 0 1-25.6-25.6V324.6592a25.6 25.6 0 0 1 51.2 0v373.0432a25.6 25.6 0 0 1-25.6 25.6z" fill="#434A54" p-id="2411"></path></svg>