<svg width="88" height="47" viewBox="0 0 88 47" fill="none" xmlns="http://www.w3.org/2000/svg">
<path d="M38.2966 22.028L29.6897 5.39758H54.7811V8.75283C53.225 8.65558 49.8212 10.2116 49.8212 13.421C49.8212 17.3598 52.5929 18.5268 54.7811 18.5268V21.8821L38.2966 22.028Z" fill="#2B79FF"/>
<path d="M43.2565 9.91986L51.8635 26.5502H26.772V23.195C28.3281 23.2922 31.732 21.7362 31.732 18.5268C31.732 14.588 28.9602 13.421 26.772 13.421V10.0657L43.2565 9.91986Z" fill="#2B79FF"/>
<mask id="mask0_6_17" style="mask-type:alpha" maskUnits="userSpaceOnUse" x="29" y="5" width="26" height="17">
<path d="M38.2966 21.8821L29.6897 5.2517H54.7811V8.60695C53.225 8.50969 49.8212 10.0658 49.8212 13.2751C49.8212 17.2139 52.5929 18.3809 54.7811 18.3809V21.7362L38.2966 21.8821Z" fill="#1D4ED8"/>
</mask>
<g mask="url(#mask0_6_17)">
<path d="M43.2565 9.77401L51.8635 26.4044H26.772V23.0491C28.3281 23.1464 31.732 21.5903 31.732 18.381C31.732 14.4422 28.9603 13.2751 26.772 13.2751V9.91989L43.2565 9.77401Z" fill="#1D4ED8"/>
</g>
<path d="M29.6897 0H40.4848C43.5464 0 46.0283 2.48189 46.0283 5.54346H29.6897V0Z" fill="#0054FE"/>
<path d="M51.8635 32.0937H41.0683C38.0068 32.0937 35.5249 29.6118 35.5249 26.5503H51.8635V32.0937Z" fill="#0054FE"/>
<path d="M2.55821 40.7643C2.55821 40.9678 2.65996 41.1277 2.86346 41.244C3.07664 41.3603 3.40611 41.4863 3.85186 41.6219C4.38482 41.7964 4.82088 41.9659 5.16003 42.1307C5.50888 42.2954 5.80928 42.5522 6.06122 42.901C6.32286 43.2499 6.45368 43.7053 6.45368 44.2674C6.45368 46.0697 5.28116 46.9709 2.93613 46.9709C2.54852 46.9709 2.0737 46.937 1.51167 46.8692C0.95933 46.8013 0.45544 46.7141 0 46.6075C0.0193804 46.404 0.0581412 46.1085 0.116282 45.7209C0.184114 45.3236 0.2471 45.028 0.305241 44.8342C0.644399 44.8827 1.15313 44.9408 1.83145 45.0087C2.51945 45.0765 3.03788 45.1104 3.38673 45.1104C3.59022 45.1104 3.71135 45.0959 3.75011 45.0668C3.80825 45.028 3.85186 44.9651 3.88093 44.8778C3.91969 44.7809 3.93907 44.6986 3.93907 44.6307C3.93907 44.4369 3.84701 44.2916 3.6629 44.1947C3.47878 44.0881 3.16385 43.9621 2.7181 43.8168C2.18514 43.652 1.74424 43.4825 1.39539 43.308C1.04654 43.1336 0.741301 42.8623 0.479665 42.4941C0.21803 42.1258 0.0872119 41.6413 0.0872119 41.0405C0.0872119 40.6142 0.184114 40.1975 0.377918 39.7905C0.571722 39.3738 0.770371 39.0928 0.973866 38.9474C1.12891 38.8408 1.44869 38.7391 1.9332 38.6422C2.41771 38.5453 2.87315 38.4968 3.29952 38.4968C4.38482 38.4968 5.27147 38.5986 5.95948 38.8021C5.94979 38.9959 5.91587 39.2624 5.85773 39.6015C5.80928 39.9407 5.75598 40.2508 5.69784 40.5318L5.36353 40.5172C4.1038 40.43 3.29952 40.3864 2.95067 40.3864C2.80531 40.3864 2.72295 40.3913 2.70357 40.401C2.66481 40.4203 2.63089 40.464 2.60182 40.5318C2.57275 40.5996 2.55821 40.6771 2.55821 40.7643Z" fill="#1D4ED8"/>
<path d="M13.9052 38.4823C14.6901 38.4823 15.3539 38.555 15.8965 38.7003C16.4392 38.8457 16.8704 39.1267 17.1902 39.5434C17.5196 39.9504 17.6844 40.5366 17.6844 41.3022C17.6844 41.6413 17.6311 41.9902 17.5245 42.3487C17.4276 42.6975 17.3016 43.0028 17.1466 43.2644C17.0012 43.5261 16.8704 43.6956 16.7541 43.7732C16.6184 43.8701 16.318 43.9476 15.8529 44.0057C15.3878 44.0542 14.8403 44.0784 14.2104 44.0784C13.9875 44.0784 13.6435 44.0687 13.1784 44.0493V46.811H10.5621V38.5259C11.5795 38.4968 12.6939 38.4823 13.9052 38.4823ZM14.9953 42.2179C15.0922 42.0919 15.1407 41.84 15.1407 41.462C15.1407 40.9678 15.0341 40.619 14.8209 40.4155C14.6174 40.212 14.2589 40.1103 13.7453 40.1103C13.5709 40.1103 13.3819 40.1248 13.1784 40.1539V42.3632C13.2753 42.3729 13.4643 42.3778 13.7453 42.3778C14.4914 42.3778 14.9081 42.3245 14.9953 42.2179Z" fill="#1D4ED8"/>
<path d="M21.4448 38.5259H27.477V40.2701H24.0612V41.7818H26.9391V43.3516H24.0612V45.0377H27.4624V46.811H21.4448V38.5259Z" fill="#1D4ED8"/>
<path d="M33.9209 43.4679V46.811H31.4935V38.5259H33.9499L36.1448 41.869C36.4742 42.3632 36.7262 42.7799 36.9006 43.1191H36.9442V38.5259H39.3571V46.811H36.8861L34.6331 43.3226L33.979 42.3342H33.9354L33.9209 43.4679Z" fill="#1D4ED8"/>
<path d="M46.6051 38.5259C47.7388 38.5259 48.6642 38.6325 49.3813 38.8457C50.1081 39.0589 50.6701 39.461 51.0674 40.0521C51.4744 40.6432 51.6779 41.4911 51.6779 42.5958C51.6779 43.778 51.4647 44.6792 51.0383 45.2994C50.612 45.9098 50.0403 46.3168 49.3232 46.5203C48.6061 46.7141 47.7001 46.811 46.6051 46.811H43.698V38.5259H46.6051ZM48.5528 44.8342C48.6691 44.718 48.7515 44.4176 48.7999 43.933C48.8484 43.4485 48.8726 43.0028 48.8726 42.5958C48.8726 42.0822 48.8338 41.6752 48.7563 41.3748C48.6885 41.0647 48.5625 40.8176 48.3784 40.6335C48.0877 40.3138 47.5886 40.1539 46.8812 40.1539C46.7553 40.1539 46.5663 40.1636 46.3144 40.1829V45.0087C46.4791 45.028 46.7359 45.0377 47.0847 45.0377C47.4433 45.0377 47.7582 45.0232 48.0295 44.9941C48.3106 44.9554 48.485 44.9021 48.5528 44.8342Z" fill="#1D4ED8"/>
<path d="M59.7872 47C58.3434 47 57.2581 46.6608 56.5313 45.9825C55.8143 45.2945 55.4557 44.1947 55.4557 42.683C55.4557 41.2004 55.853 40.1199 56.6476 39.4416C57.4422 38.7633 58.4936 38.4242 59.8018 38.4242C62.5538 38.4242 63.9298 39.7953 63.9298 42.5377C63.9298 43.9234 63.5906 45.0135 62.9123 45.8081C62.2437 46.6027 61.202 47 59.7872 47ZM59.7291 45.2848C60.0004 45.2848 60.2281 45.2412 60.4123 45.154C60.5964 45.0571 60.7417 44.8924 60.8483 44.6598C61.0518 44.2625 61.1536 43.6133 61.1536 42.7121C61.1536 41.8303 61.0518 41.1907 60.8483 40.7934C60.6448 40.3864 60.2717 40.1732 59.7291 40.1539C59.5256 40.1539 59.3124 40.1781 59.0896 40.2265C58.8764 40.2653 58.7407 40.3234 58.6826 40.401C58.5663 40.5366 58.4742 40.8273 58.4064 41.2731C58.3482 41.7091 58.3192 42.1888 58.3192 42.7121C58.3192 43.5261 58.3967 44.122 58.5517 44.4999C58.6583 44.7809 58.8085 44.9844 59.0023 45.1104C59.1961 45.2267 59.4384 45.2848 59.7291 45.2848Z" fill="#1D4ED8"/>
<path d="M75.5374 46.811H72.7902L72.296 44.718C72.2766 44.6404 72.2427 44.5096 72.1943 44.3255C72.1555 44.1317 72.107 43.9912 72.0489 43.904C71.9908 43.8071 71.9084 43.7441 71.8018 43.715C71.5305 43.7247 71.1332 43.7296 70.6099 43.7296V46.811H67.9936V38.5986C69.1661 38.5114 70.2611 38.4678 71.2785 38.4678C72.1991 38.4678 72.9453 38.5453 73.517 38.7003C74.0887 38.8457 74.5151 39.1025 74.7961 39.4707C75.0868 39.8292 75.2321 40.3234 75.2321 40.9533C75.2321 41.5444 75.0965 42.0095 74.8251 42.3487C74.5538 42.6782 74.1178 42.8768 73.517 42.9446V43.0319C73.8561 43.0609 74.1371 43.1724 74.36 43.3662C74.5926 43.5503 74.7476 43.7877 74.8251 44.0784L75.5374 46.811ZM70.6099 42.0871C70.6971 42.0968 70.8667 42.1016 71.1187 42.1016C71.8648 42.1016 72.3008 42.0386 72.4268 41.9126C72.5431 41.7964 72.6012 41.525 72.6012 41.0987C72.6012 40.7014 72.4947 40.43 72.2815 40.2847C72.078 40.1393 71.7388 40.0667 71.264 40.0667C71.1574 40.0667 70.9394 40.0763 70.6099 40.0957V42.0871Z" fill="#1D4ED8"/>
<path d="M84.1289 44.9941H81.716L81.28 46.811H78.6055L81.28 38.5259H84.6958L87.254 46.811H84.5649L84.1289 44.9941ZM82.9079 40.3138L82.0503 43.3807H83.78L82.9661 40.3138H82.9079Z" fill="#1D4ED8"/>
</svg>
